solid OpenSCAD_Model
  facet normal 0.998027 -0 0.0627892
    outer loop
      vertex 29.0181 8.75 7.5076
      vertex 29.05 11.25 7
      vertex 29.0181 11.25 7.5076
    endloop
  endfacet
  facet normal 0.998027 0 0.0627892
    outer loop
      vertex 29.05 11.25 7
      vertex 29.0181 8.75 7.5076
      vertex 29.05 8.75 7
    endloop
  endfacet
  facet normal 0.982287 -0 0.187385
    outer loop
      vertex 28.9228 8.75 8.00719
      vertex 29.0181 11.25 7.5076
      vertex 28.9228 11.25 8.00719
    endloop
  endfacet
  facet normal 0.982287 0 0.187385
    outer loop
      vertex 29.0181 11.25 7.5076
      vertex 28.9228 8.75 8.00719
      vertex 29.0181 8.75 7.5076
    endloop
  endfacet
  facet normal -0.998027 0 0.0627892
    outer loop
      vertex 20.95 11.25 7
      vertex 20.9819 8.75 7.5076
      vertex 20.9819 11.25 7.5076
    endloop
  endfacet
  facet normal -0.998027 0 0.0627892
    outer loop
      vertex 20.9819 8.75 7.5076
      vertex 20.95 11.25 7
      vertex 20.95 8.75 7
    endloop
  endfacet
  facet normal 0 -1 0
    outer loop
      vertex 22.1642 8.75 5.87722
      vertex 20.95 8.75 7
      vertex 18.95 8.75 7
    endloop
  endfacet
  facet normal 0 -1 0
    outer loop
      vertex 20.95 8.75 7
      vertex 21.9741 8.75 6.61773
      vertex 21.95 8.75 7
    endloop
  endfacet
  facet normal 0 -1 0
    outer loop
      vertex 20.95 8.75 7
      vertex 22.0458 8.75 6.2415
      vertex 21.9741 8.75 6.61773
    endloop
  endfacet
  facet normal 0 -1 0
    outer loop
      vertex 20.95 8.75 7
      vertex 22.1642 8.75 5.87722
      vertex 22.0458 8.75 6.2415
    endloop
  endfacet
  facet normal 0 -1 0
    outer loop
      vertex 18.95 8.75 7
      vertex 22.3273 8.75 5.53065
      vertex 22.1642 8.75 5.87722
    endloop
  endfacet
  facet normal 0 -1 0
    outer loop
      vertex 18.95 8.75 1
      vertex 22.3273 8.75 5.53065
      vertex 18.95 8.75 7
    endloop
  endfacet
  facet normal 0 -1 -0
    outer loop
      vertex 22.3273 8.75 5.53065
      vertex 18.95 8.75 1
      vertex 22.5325 8.75 5.20726
    endloop
  endfacet
  facet normal 0 -1 -0
    outer loop
      vertex 22.5325 8.75 5.20726
      vertex 18.95 8.75 1
      vertex 22.7766 8.75 4.91213
    endloop
  endfacet
  facet normal 0 -1 -0
    outer loop
      vertex 22.7766 8.75 4.91213
      vertex 18.95 8.75 1
      vertex 23.0559 8.75 4.64993
    endloop
  endfacet
  facet normal 0 -1 -0
    outer loop
      vertex 24.8085 8.75 3.95602
      vertex 18.95 8.75 1
      vertex 25.1915 8.75 3.95602
    endloop
  endfacet
  facet normal 0 -1 -0
    outer loop
      vertex 24.4285 8.75 4.00402
      vertex 18.95 8.75 1
      vertex 24.8085 8.75 3.95602
    endloop
  endfacet
  facet normal 0 -1 -0
    outer loop
      vertex 24.0575 8.75 4.09928
      vertex 18.95 8.75 1
      vertex 24.4285 8.75 4.00402
    endloop
  endfacet
  facet normal 0 -1 -0
    outer loop
      vertex 23.7014 8.75 4.24028
      vertex 18.95 8.75 1
      vertex 24.0575 8.75 4.09928
    endloop
  endfacet
  facet normal 0 -1 -0
    outer loop
      vertex 23.3657 8.75 4.4248
      vertex 18.95 8.75 1
      vertex 23.7014 8.75 4.24028
    endloop
  endfacet
  facet normal 0 -1 -0
    outer loop
      vertex 23.0559 8.75 4.64993
      vertex 18.95 8.75 1
      vertex 23.3657 8.75 4.4248
    endloop
  endfacet
  facet normal 0 -1 0
    outer loop
      vertex 28.0259 8.75 6.61773
      vertex 29.05 8.75 7
      vertex 28.05 8.75 7
    endloop
  endfacet
  facet normal 0 -1 0
    outer loop
      vertex 27.9542 8.75 6.2415
      vertex 29.05 8.75 7
      vertex 28.0259 8.75 6.61773
    endloop
  endfacet
  facet normal 0 -1 0
    outer loop
      vertex 27.8358 8.75 5.87722
      vertex 29.05 8.75 7
      vertex 27.9542 8.75 6.2415
    endloop
  endfacet
  facet normal 0 -1 -0
    outer loop
      vertex 29.05 8.75 7
      vertex 27.8358 8.75 5.87722
      vertex 31.05 8.75 7
    endloop
  endfacet
  facet normal 0 -1 0
    outer loop
      vertex 27.6727 8.75 5.53065
      vertex 31.05 8.75 7
      vertex 27.8358 8.75 5.87722
    endloop
  endfacet
  facet normal 0 -1 0
    outer loop
      vertex 31.05 8.75 1
      vertex 27.6727 8.75 5.53065
      vertex 27.4675 8.75 5.20726
    endloop
  endfacet
  facet normal 0 -1 0
    outer loop
      vertex 31.05 8.75 1
      vertex 27.4675 8.75 5.20726
      vertex 27.2234 8.75 4.91213
    endloop
  endfacet
  facet normal 0 -1 0
    outer loop
      vertex 31.05 8.75 1
      vertex 27.2234 8.75 4.91213
      vertex 26.9441 8.75 4.64993
    endloop
  endfacet
  facet normal 0 -1 0
    outer loop
      vertex 31.05 8.75 1
      vertex 26.9441 8.75 4.64993
      vertex 26.6343 8.75 4.4248
    endloop
  endfacet
  facet normal 0 -1 0
    outer loop
      vertex 31.05 8.75 1
      vertex 25.1915 8.75 3.95602
      vertex 18.95 8.75 1
    endloop
  endfacet
  facet normal 0 -1 0
    outer loop
      vertex 25.1915 8.75 3.95602
      vertex 31.05 8.75 1
      vertex 25.5715 8.75 4.00402
    endloop
  endfacet
  facet normal 0 -1 0
    outer loop
      vertex 25.5715 8.75 4.00402
      vertex 31.05 8.75 1
      vertex 25.9425 8.75 4.09928
    endloop
  endfacet
  facet normal 0 -1 0
    outer loop
      vertex 27.6727 8.75 5.53065
      vertex 31.05 8.75 1
      vertex 31.05 8.75 7
    endloop
  endfacet
  facet normal 0 -1 0
    outer loop
      vertex 26.2986 8.75 4.24028
      vertex 31.05 8.75 1
      vertex 26.6343 8.75 4.4248
    endloop
  endfacet
  facet normal 0 -1 0
    outer loop
      vertex 25.9425 8.75 4.09928
      vertex 31.05 8.75 1
      vertex 26.2986 8.75 4.24028
    endloop
  endfacet
  facet normal -0 0 1
    outer loop
      vertex 24.7457 11.25 11.042
      vertex 25.2543 8.75 11.042
      vertex 25.2543 11.25 11.042
    endloop
  endfacet
  facet normal 0 0 1
    outer loop
      vertex 25.2543 8.75 11.042
      vertex 24.7457 11.25 11.042
      vertex 24.7457 8.75 11.042
    endloop
  endfacet
  facet normal 0 -1 -0
    outer loop
      vertex 24.2411 8.75 10.9783
      vertex 23.371 8.75 9.57809
      vertex 24.7457 8.75 11.042
    endloop
  endfacet
  facet normal 0 -1 0
    outer loop
      vertex 24.2411 8.75 10.9783
      vertex 23.3657 8.75 9.5752
      vertex 23.371 8.75 9.57809
    endloop
  endfacet
  facet normal 0 -1 0
    outer loop
      vertex 24.2411 8.75 10.9783
      vertex 23.0559 8.75 9.35007
      vertex 23.3657 8.75 9.5752
    endloop
  endfacet
  facet normal 0 -1 0
    outer loop
      vertex 24.2411 8.75 10.9783
      vertex 22.7766 8.75 9.08787
      vertex 23.0559 8.75 9.35007
    endloop
  endfacet
  facet normal 6.14446e-05 -1 -4.76002e-05
    outer loop
      vertex 24.2411 8.75 10.9783
      vertex 22.5325 8.75 8.79274
      vertex 22.7766 8.75 9.08787
    endloop
  endfacet
  facet normal 0 -1 0
    outer loop
      vertex 22.3273 8.75 8.46935
      vertex 20.95 8.75 7
      vertex 22.3247 8.75 8.46391
    endloop
  endfacet
  facet normal 0 -1 0
    outer loop
      vertex 22.5325 8.75 8.79274
      vertex 20.95 8.75 7
      vertex 22.3273 8.75 8.46935
    endloop
  endfacet
  facet normal -4.32313e-06 -1 3.81612e-06
    outer loop
      vertex 20.95 8.75 7
      vertex 22.5325 8.75 8.79274
      vertex 24.2411 8.75 10.9783
    endloop
  endfacet
  facet normal 0 -1 0
    outer loop
      vertex 27.8358 8.75 8.12278
      vertex 29.05 8.75 7
      vertex 27.6753 8.75 8.46391
    endloop
  endfacet
  facet normal 0 -1 0
    outer loop
      vertex 27.9542 8.75 7.7585
      vertex 29.05 8.75 7
      vertex 27.8358 8.75 8.12278
    endloop
  endfacet
  facet normal 0 -1 0
    outer loop
      vertex 28.0259 8.75 7.38227
      vertex 29.05 8.75 7
      vertex 27.9542 8.75 7.7585
    endloop
  endfacet
  facet normal 0 -1 0
    outer loop
      vertex 29.05 8.75 7
      vertex 28.0259 8.75 7.38227
      vertex 28.05 8.75 7
    endloop
  endfacet
  facet normal 0 -1 0
    outer loop
      vertex 20.95 8.75 7
      vertex 22.1642 8.75 8.12278
      vertex 22.3247 8.75 8.46391
    endloop
  endfacet
  facet normal 0 -1 0
    outer loop
      vertex 20.95 8.75 7
      vertex 22.0458 8.75 7.7585
      vertex 22.1642 8.75 8.12278
    endloop
  endfacet
  facet normal 0 -1 0
    outer loop
      vertex 20.95 8.75 7
      vertex 21.9741 8.75 7.38227
      vertex 22.0458 8.75 7.7585
    endloop
  endfacet
  facet normal 0 -1 0
    outer loop
      vertex 21.9741 8.75 7.38227
      vertex 20.95 8.75 7
      vertex 21.95 8.75 7
    endloop
  endfacet
  facet normal 0 -1 0
    outer loop
      vertex 24.7457 8.75 11.042
      vertex 24.8085 8.75 10.044
      vertex 25.2543 8.75 11.042
    endloop
  endfacet
  facet normal 0 -1 -0
    outer loop
      vertex 24.7457 8.75 11.042
      vertex 24.4285 8.75 9.99598
      vertex 24.8085 8.75 10.044
    endloop
  endfacet
  facet normal 0 -1 0
    outer loop
      vertex 24.7457 8.75 11.042
      vertex 24.0575 8.75 9.90072
      vertex 24.4285 8.75 9.99598
    endloop
  endfacet
  facet normal 0 -1 0
    outer loop
      vertex 24.7457 8.75 11.042
      vertex 23.7014 8.75 9.75972
      vertex 24.0575 8.75 9.90072
    endloop
  endfacet
  facet normal -0 -1 0
    outer loop
      vertex 23.7014 8.75 9.75972
      vertex 24.7457 8.75 11.042
      vertex 23.371 8.75 9.57809
    endloop
  endfacet
  facet normal 0 -1 0
    outer loop
      vertex 25.1915 8.75 10.044
      vertex 25.2543 8.75 11.042
      vertex 24.8085 8.75 10.044
    endloop
  endfacet
  facet normal 0 -1 0
    outer loop
      vertex 25.5715 8.75 9.99598
      vertex 25.2543 8.75 11.042
      vertex 25.1915 8.75 10.044
    endloop
  endfacet
  facet normal 0 -1 0
    outer loop
      vertex 25.9425 8.75 9.90072
      vertex 25.2543 8.75 11.042
      vertex 25.5715 8.75 9.99598
    endloop
  endfacet
  facet normal 0 -1 0
    outer loop
      vertex 26.2986 8.75 9.75972
      vertex 25.2543 8.75 11.042
      vertex 25.9425 8.75 9.90072
    endloop
  endfacet
  facet normal 0 -1 0
    outer loop
      vertex 25.2543 8.75 11.042
      vertex 26.2986 8.75 9.75972
      vertex 26.629 8.75 9.57809
    endloop
  endfacet
  facet normal 0.684547 0 0.728969
    outer loop
      vertex 27.5816 11.25 10.1206
      vertex 27.9523 8.75 9.77242
      vertex 27.9523 11.25 9.77242
    endloop
  endfacet
  facet normal 0.684547 0 0.728969
    outer loop
      vertex 27.9523 8.75 9.77242
      vertex 27.5816 11.25 10.1206
      vertex 27.5816 8.75 10.1206
    endloop
  endfacet
  facet normal 3.37385e-07 -1 4.6437e-07
    outer loop
      vertex 27.5816 8.75 10.1206
      vertex 27.1701 8.75 10.4195
      vertex 29.05 8.75 7
    endloop
  endfacet
  facet normal 0.904827 -0 0.425779
    outer loop
      vertex 28.549 8.75 8.9511
      vertex 28.7656 11.25 8.4909
      vertex 28.549 11.25 8.9511
    endloop
  endfacet
  facet normal 0.904827 0 0.425779
    outer loop
      vertex 28.7656 11.25 8.4909
      vertex 28.549 8.75 8.9511
      vertex 28.7656 8.75 8.4909
    endloop
  endfacet
  facet normal -0.684547 0 0.728969
    outer loop
      vertex 22.0477 11.25 9.77242
      vertex 22.4184 8.75 10.1206
      vertex 22.4184 11.25 10.1206
    endloop
  endfacet
  facet normal -0.684547 0 0.728969
    outer loop
      vertex 22.4184 8.75 10.1206
      vertex 22.0477 11.25 9.77242
      vertex 22.0477 8.75 9.77242
    endloop
  endfacet
  facet normal -7.97469e-07 -1 6.59727e-07
    outer loop
      vertex 21.7235 8.75 9.38053
      vertex 20.95 8.75 7
      vertex 22.0477 8.75 9.77242
    endloop
  endfacet
  facet normal -0.368124 0 0.929777
    outer loop
      vertex 23.2756 11.25 10.6645
      vertex 23.7485 8.75 10.8518
      vertex 23.7485 11.25 10.8518
    endloop
  endfacet
  facet normal -0.368124 0 0.929777
    outer loop
      vertex 23.7485 8.75 10.8518
      vertex 23.2756 11.25 10.6645
      vertex 23.2756 8.75 10.6645
    endloop
  endfacet
  facet normal 1.29356e-06 -1 8.20918e-07
    outer loop
      vertex 28.549 8.75 8.9511
      vertex 28.2765 8.75 9.38053
      vertex 29.05 8.75 7
    endloop
  endfacet
  facet normal 0.951057 -0 0.309014
    outer loop
      vertex 28.7656 8.75 8.4909
      vertex 28.9228 11.25 8.00719
      vertex 28.7656 11.25 8.4909
    endloop
  endfacet
  facet normal 0.951057 0 0.309014
    outer loop
      vertex 28.9228 11.25 8.00719
      vertex 28.7656 8.75 8.4909
      vertex 28.9228 8.75 8.00719
    endloop
  endfacet
  facet normal 0.368124 0 0.929777
    outer loop
      vertex 26.2515 11.25 10.8518
      vertex 26.7244 8.75 10.6645
      vertex 26.7244 11.25 10.6645
    endloop
  endfacet
  facet normal 0.368124 0 0.929777
    outer loop
      vertex 26.7244 8.75 10.6645
      vertex 26.2515 11.25 10.8518
      vertex 26.2515 8.75 10.8518
    endloop
  endfacet
  facet normal 7.81498e-08 -1 3.04372e-07
    outer loop
      vertex 26.2515 8.75 10.8518
      vertex 25.7589 8.75 10.9783
      vertex 29.05 8.75 7
    endloop
  endfacet
  facet normal 0.248691 0 0.968583
    outer loop
      vertex 25.7589 11.25 10.9783
      vertex 26.2515 8.75 10.8518
      vertex 26.2515 11.25 10.8518
    endloop
  endfacet
  facet normal 0.248691 0 0.968583
    outer loop
      vertex 26.2515 8.75 10.8518
      vertex 25.7589 11.25 10.9783
      vertex 25.7589 8.75 10.9783
    endloop
  endfacet
  facet normal 0.587786 0 0.809016
    outer loop
      vertex 27.1701 11.25 10.4195
      vertex 27.5816 8.75 10.1206
      vertex 27.5816 11.25 10.1206
    endloop
  endfacet
  facet normal 0.587786 0 0.809016
    outer loop
      vertex 27.5816 8.75 10.1206
      vertex 27.1701 11.25 10.4195
      vertex 27.1701 8.75 10.4195
    endloop
  endfacet
  facet normal -0.904827 0 0.425779
    outer loop
      vertex 21.2344 8.75 8.4909
      vertex 21.451 11.25 8.9511
      vertex 21.2344 11.25 8.4909
    endloop
  endfacet
  facet normal -0.904827 0 0.425779
    outer loop
      vertex 21.451 11.25 8.9511
      vertex 21.2344 8.75 8.4909
      vertex 21.451 8.75 8.9511
    endloop
  endfacet
  facet normal -2.1973e-07 -1 3.99688e-07
    outer loop
      vertex 22.8299 8.75 10.4195
      vertex 20.95 8.75 7
      vertex 23.2756 8.75 10.6645
    endloop
  endfacet
  facet normal -0.770512 0 0.637426
    outer loop
      vertex 21.7235 8.75 9.38053
      vertex 22.0477 11.25 9.77242
      vertex 21.7235 11.25 9.38053
    endloop
  endfacet
  facet normal -0.770512 0 0.637426
    outer loop
      vertex 22.0477 11.25 9.77242
      vertex 21.7235 8.75 9.38053
      vertex 22.0477 8.75 9.77242
    endloop
  endfacet
  facet normal -4.76802e-06 -1 1.54921e-06
    outer loop
      vertex 21.0772 8.75 8.00719
      vertex 20.95 8.75 7
      vertex 21.2344 8.75 8.4909
    endloop
  endfacet
  facet normal -0.125333 0 0.992115
    outer loop
      vertex 24.2411 11.25 10.9783
      vertex 24.7457 8.75 11.042
      vertex 24.7457 11.25 11.042
    endloop
  endfacet
  facet normal -0.125333 0 0.992115
    outer loop
      vertex 24.7457 8.75 11.042
      vertex 24.2411 11.25 10.9783
      vertex 24.2411 8.75 10.9783
    endloop
  endfacet
  facet normal 2.28611e-06 -1 1.07576e-06
    outer loop
      vertex 28.7656 8.75 8.4909
      vertex 28.549 8.75 8.9511
      vertex 29.05 8.75 7
    endloop
  endfacet
  facet normal 0.844329 -0 0.535826
    outer loop
      vertex 28.2765 8.75 9.38053
      vertex 28.549 11.25 8.9511
      vertex 28.2765 11.25 9.38053
    endloop
  endfacet
  facet normal 0.844329 0 0.535826
    outer loop
      vertex 28.549 11.25 8.9511
      vertex 28.2765 8.75 9.38053
      vertex 28.549 8.75 8.9511
    endloop
  endfacet
  facet normal 7.97469e-07 -1 6.59727e-07
    outer loop
      vertex 28.2765 8.75 9.38053
      vertex 27.9523 8.75 9.77242
      vertex 29.05 8.75 7
    endloop
  endfacet
  facet normal 0.770512 -0 0.637426
    outer loop
      vertex 27.9523 8.75 9.77242
      vertex 28.2765 11.25 9.38053
      vertex 27.9523 11.25 9.77242
    endloop
  endfacet
  facet normal 0.770512 0 0.637426
    outer loop
      vertex 28.2765 11.25 9.38053
      vertex 27.9523 8.75 9.77242
      vertex 28.2765 8.75 9.38053
    endloop
  endfacet
  facet normal 2.1973e-07 -1 3.99688e-07
    outer loop
      vertex 27.1701 8.75 10.4195
      vertex 26.7244 8.75 10.6645
      vertex 29.05 8.75 7
    endloop
  endfacet
  facet normal 0.481753 0 0.876307
    outer loop
      vertex 26.7244 11.25 10.6645
      vertex 27.1701 8.75 10.4195
      vertex 27.1701 11.25 10.4195
    endloop
  endfacet
  facet normal 0.481753 0 0.876307
    outer loop
      vertex 27.1701 8.75 10.4195
      vertex 26.7244 11.25 10.6645
      vertex 26.7244 8.75 10.6645
    endloop
  endfacet
  facet normal 0 -1 0
    outer loop
      vertex 26.629 8.75 9.57809
      vertex 25.7589 8.75 10.9783
      vertex 25.2543 8.75 11.042
    endloop
  endfacet
  facet normal 0 -1 0
    outer loop
      vertex 26.6343 8.75 9.5752
      vertex 25.7589 8.75 10.9783
      vertex 26.629 8.75 9.57809
    endloop
  endfacet
  facet normal 0 -1 0
    outer loop
      vertex 26.9441 8.75 9.35007
      vertex 25.7589 8.75 10.9783
      vertex 26.6343 8.75 9.5752
    endloop
  endfacet
  facet normal 0 -1 0
    outer loop
      vertex 27.2234 8.75 9.08787
      vertex 25.7589 8.75 10.9783
      vertex 26.9441 8.75 9.35007
    endloop
  endfacet
  facet normal -6.14446e-05 -1 -4.76002e-05
    outer loop
      vertex 27.4675 8.75 8.79274
      vertex 25.7589 8.75 10.9783
      vertex 27.2234 8.75 9.08787
    endloop
  endfacet
  facet normal 4.32313e-06 -1 3.81612e-06
    outer loop
      vertex 27.4675 8.75 8.79274
      vertex 29.05 8.75 7
      vertex 25.7589 8.75 10.9783
    endloop
  endfacet
  facet normal 0 -1 0
    outer loop
      vertex 27.6727 8.75 8.46935
      vertex 29.05 8.75 7
      vertex 27.4675 8.75 8.79274
    endloop
  endfacet
  facet normal 0 -1 0
    outer loop
      vertex 29.05 8.75 7
      vertex 27.6727 8.75 8.46935
      vertex 27.6753 8.75 8.46391
    endloop
  endfacet
  facet normal 0.125333 0 0.992115
    outer loop
      vertex 25.2543 11.25 11.042
      vertex 25.7589 8.75 10.9783
      vertex 25.7589 11.25 10.9783
    endloop
  endfacet
  facet normal 0.125333 0 0.992115
    outer loop
      vertex 25.7589 8.75 10.9783
      vertex 25.2543 11.25 11.042
      vertex 25.2543 8.75 11.042
    endloop
  endfacet
  facet normal -7.81498e-08 -1 3.04372e-07
    outer loop
      vertex 23.7485 8.75 10.8518
      vertex 20.95 8.75 7
      vertex 24.2411 8.75 10.9783
    endloop
  endfacet
  facet normal -0.248691 0 0.968583
    outer loop
      vertex 23.7485 11.25 10.8518
      vertex 24.2411 8.75 10.9783
      vertex 24.2411 11.25 10.9783
    endloop
  endfacet
  facet normal -0.248691 0 0.968583
    outer loop
      vertex 24.2411 8.75 10.9783
      vertex 23.7485 11.25 10.8518
      vertex 23.7485 8.75 10.8518
    endloop
  endfacet
  facet normal -1.29356e-06 -1 8.20918e-07
    outer loop
      vertex 21.451 8.75 8.9511
      vertex 20.95 8.75 7
      vertex 21.7235 8.75 9.38053
    endloop
  endfacet
  facet normal -0.844329 0 0.535826
    outer loop
      vertex 21.451 8.75 8.9511
      vertex 21.7235 11.25 9.38053
      vertex 21.451 11.25 8.9511
    endloop
  endfacet
  facet normal -0.844329 0 0.535826
    outer loop
      vertex 21.7235 11.25 9.38053
      vertex 21.451 8.75 8.9511
      vertex 21.7235 8.75 9.38053
    endloop
  endfacet
  facet normal -0.951057 0 0.309014
    outer loop
      vertex 21.0772 8.75 8.00719
      vertex 21.2344 11.25 8.4909
      vertex 21.0772 11.25 8.00719
    endloop
  endfacet
  facet normal -0.951057 0 0.309014
    outer loop
      vertex 21.2344 11.25 8.4909
      vertex 21.0772 8.75 8.00719
      vertex 21.2344 8.75 8.4909
    endloop
  endfacet
  facet normal -0.982287 0 0.187385
    outer loop
      vertex 20.9819 8.75 7.5076
      vertex 21.0772 11.25 8.00719
      vertex 20.9819 11.25 7.5076
    endloop
  endfacet
  facet normal -0.982287 0 0.187385
    outer loop
      vertex 21.0772 11.25 8.00719
      vertex 20.9819 8.75 7.5076
      vertex 21.0772 8.75 8.00719
    endloop
  endfacet
  facet normal -0.481753 0 0.876307
    outer loop
      vertex 22.8299 11.25 10.4195
      vertex 23.2756 8.75 10.6645
      vertex 23.2756 11.25 10.6645
    endloop
  endfacet
  facet normal -0.481753 0 0.876307
    outer loop
      vertex 23.2756 8.75 10.6645
      vertex 22.8299 11.25 10.4195
      vertex 22.8299 8.75 10.4195
    endloop
  endfacet
  facet normal -3.37385e-07 -1 4.6437e-07
    outer loop
      vertex 22.4184 8.75 10.1206
      vertex 20.95 8.75 7
      vertex 22.8299 8.75 10.4195
    endloop
  endfacet
  facet normal -0.587786 0 0.809016
    outer loop
      vertex 22.4184 11.25 10.1206
      vertex 22.8299 8.75 10.4195
      vertex 22.8299 11.25 10.4195
    endloop
  endfacet
  facet normal -0.587786 0 0.809016
    outer loop
      vertex 22.8299 8.75 10.4195
      vertex 22.4184 11.25 10.1206
      vertex 22.4184 8.75 10.1206
    endloop
  endfacet
  facet normal 0 1 0
    outer loop
      vertex 27.8358 11.25 5.87722
      vertex 29.05 11.25 7
      vertex 31.05 11.25 7
    endloop
  endfacet
  facet normal 0 1 0
    outer loop
      vertex 29.05 11.25 7
      vertex 28.0259 11.25 6.61773
      vertex 28.05 11.25 7
    endloop
  endfacet
  facet normal 0 1 0
    outer loop
      vertex 29.05 11.25 7
      vertex 27.9542 11.25 6.2415
      vertex 28.0259 11.25 6.61773
    endloop
  endfacet
  facet normal 0 1 0
    outer loop
      vertex 29.05 11.25 7
      vertex 27.8358 11.25 5.87722
      vertex 27.9542 11.25 6.2415
    endloop
  endfacet
  facet normal 0 1 0
    outer loop
      vertex 31.05 11.25 7
      vertex 27.6727 11.25 5.53065
      vertex 27.8358 11.25 5.87722
    endloop
  endfacet
  facet normal 0 1 -0
    outer loop
      vertex 31.05 11.25 1
      vertex 27.6727 11.25 5.53065
      vertex 31.05 11.25 7
    endloop
  endfacet
  facet normal 0 1 0
    outer loop
      vertex 27.6727 11.25 5.53065
      vertex 31.05 11.25 1
      vertex 27.4675 11.25 5.20726
    endloop
  endfacet
  facet normal 0 1 0
    outer loop
      vertex 27.4675 11.25 5.20726
      vertex 31.05 11.25 1
      vertex 27.2234 11.25 4.91213
    endloop
  endfacet
  facet normal 0 1 0
    outer loop
      vertex 27.2234 11.25 4.91213
      vertex 31.05 11.25 1
      vertex 26.9441 11.25 4.64993
    endloop
  endfacet
  facet normal 0 1 0
    outer loop
      vertex 25.1915 11.25 3.95602
      vertex 31.05 11.25 1
      vertex 24.8085 11.25 3.95602
    endloop
  endfacet
  facet normal 0 1 0
    outer loop
      vertex 25.5715 11.25 4.00402
      vertex 31.05 11.25 1
      vertex 25.1915 11.25 3.95602
    endloop
  endfacet
  facet normal 0 1 0
    outer loop
      vertex 25.9425 11.25 4.09928
      vertex 31.05 11.25 1
      vertex 25.5715 11.25 4.00402
    endloop
  endfacet
  facet normal 0 1 0
    outer loop
      vertex 26.2986 11.25 4.24028
      vertex 31.05 11.25 1
      vertex 25.9425 11.25 4.09928
    endloop
  endfacet
  facet normal 0 1 0
    outer loop
      vertex 26.6343 11.25 4.4248
      vertex 31.05 11.25 1
      vertex 26.2986 11.25 4.24028
    endloop
  endfacet
  facet normal 0 1 0
    outer loop
      vertex 26.9441 11.25 4.64993
      vertex 31.05 11.25 1
      vertex 26.6343 11.25 4.4248
    endloop
  endfacet
  facet normal 0 1 0
    outer loop
      vertex 25.1915 11.25 10.044
      vertex 25.2543 11.25 11.042
      vertex 25.7589 11.25 10.9783
    endloop
  endfacet
  facet normal 0 1 0
    outer loop
      vertex 25.2543 11.25 11.042
      vertex 25.1915 11.25 10.044
      vertex 24.7457 11.25 11.042
    endloop
  endfacet
  facet normal 0 1 0
    outer loop
      vertex 25.5715 11.25 9.99598
      vertex 25.7589 11.25 10.9783
      vertex 26.2515 11.25 10.8518
    endloop
  endfacet
  facet normal 0 1 -0
    outer loop
      vertex 24.8085 11.25 10.044
      vertex 24.7457 11.25 11.042
      vertex 25.1915 11.25 10.044
    endloop
  endfacet
  facet normal 0 1 0
    outer loop
      vertex 25.9425 11.25 9.90072
      vertex 26.2515 11.25 10.8518
      vertex 26.7244 11.25 10.6645
    endloop
  endfacet
  facet normal 0 1 0
    outer loop
      vertex 24.7457 11.25 11.042
      vertex 24.8085 11.25 10.044
      vertex 24.2411 11.25 10.9783
    endloop
  endfacet
  facet normal 0 1 0
    outer loop
      vertex 26.2986 11.25 9.75972
      vertex 26.7244 11.25 10.6645
      vertex 27.1701 11.25 10.4195
    endloop
  endfacet
  facet normal 0 1 -0
    outer loop
      vertex 24.4285 11.25 9.99598
      vertex 24.2411 11.25 10.9783
      vertex 24.8085 11.25 10.044
    endloop
  endfacet
  facet normal 0 1 0
    outer loop
      vertex 26.6343 11.25 9.5752
      vertex 27.1701 11.25 10.4195
      vertex 27.5816 11.25 10.1206
    endloop
  endfacet
  facet normal 0 1 0
    outer loop
      vertex 24.2411 11.25 10.9783
      vertex 24.4285 11.25 9.99598
      vertex 23.7485 11.25 10.8518
    endloop
  endfacet
  facet normal 0 1 -0
    outer loop
      vertex 24.0575 11.25 9.90072
      vertex 23.7485 11.25 10.8518
      vertex 24.4285 11.25 9.99598
    endloop
  endfacet
  facet normal 0 1 0
    outer loop
      vertex 25.7589 11.25 10.9783
      vertex 25.5715 11.25 9.99598
      vertex 25.1915 11.25 10.044
    endloop
  endfacet
  facet normal 0 1 0
    outer loop
      vertex 26.2515 11.25 10.8518
      vertex 25.9425 11.25 9.90072
      vertex 25.5715 11.25 9.99598
    endloop
  endfacet
  facet normal 0 1 0
    outer loop
      vertex 26.9441 11.25 9.35007
      vertex 27.5816 11.25 10.1206
      vertex 27.9523 11.25 9.77242
    endloop
  endfacet
  facet normal 0 1 0
    outer loop
      vertex 26.7244 11.25 10.6645
      vertex 26.2986 11.25 9.75972
      vertex 25.9425 11.25 9.90072
    endloop
  endfacet
  facet normal 0 1 0
    outer loop
      vertex 27.1701 11.25 10.4195
      vertex 26.6343 11.25 9.5752
      vertex 26.2986 11.25 9.75972
    endloop
  endfacet
  facet normal 0 1 0
    outer loop
      vertex 27.2234 11.25 9.08787
      vertex 27.9523 11.25 9.77242
      vertex 28.2765 11.25 9.38053
    endloop
  endfacet
  facet normal 0 1 0
    outer loop
      vertex 27.5816 11.25 10.1206
      vertex 26.9441 11.25 9.35007
      vertex 26.6343 11.25 9.5752
    endloop
  endfacet
  facet normal 0 1 0
    outer loop
      vertex 27.9523 11.25 9.77242
      vertex 27.2234 11.25 9.08787
      vertex 26.9441 11.25 9.35007
    endloop
  endfacet
  facet normal 0 1 0
    outer loop
      vertex 27.4675 11.25 8.79274
      vertex 28.2765 11.25 9.38053
      vertex 28.549 11.25 8.9511
    endloop
  endfacet
  facet normal 0 1 0
    outer loop
      vertex 28.2765 11.25 9.38053
      vertex 27.4675 11.25 8.79274
      vertex 27.2234 11.25 9.08787
    endloop
  endfacet
  facet normal 0 1 0
    outer loop
      vertex 27.6727 11.25 8.46935
      vertex 28.549 11.25 8.9511
      vertex 28.7656 11.25 8.4909
    endloop
  endfacet
  facet normal 0 1 0
    outer loop
      vertex 28.549 11.25 8.9511
      vertex 27.6727 11.25 8.46935
      vertex 27.4675 11.25 8.79274
    endloop
  endfacet
  facet normal 0 1 0
    outer loop
      vertex 28.7656 11.25 8.4909
      vertex 27.8358 11.25 8.12278
      vertex 27.6727 11.25 8.46935
    endloop
  endfacet
  facet normal 0 1 0
    outer loop
      vertex 28.9228 11.25 8.00719
      vertex 27.8358 11.25 8.12278
      vertex 28.7656 11.25 8.4909
    endloop
  endfacet
  facet normal 0 1 0
    outer loop
      vertex 28.9228 11.25 8.00719
      vertex 27.9542 11.25 7.7585
      vertex 27.8358 11.25 8.12278
    endloop
  endfacet
  facet normal 0 1 0
    outer loop
      vertex 29.0181 11.25 7.5076
      vertex 27.9542 11.25 7.7585
      vertex 28.9228 11.25 8.00719
    endloop
  endfacet
  facet normal 0 1 0
    outer loop
      vertex 29.0181 11.25 7.5076
      vertex 28.0259 11.25 7.38227
      vertex 27.9542 11.25 7.7585
    endloop
  endfacet
  facet normal 0 1 0
    outer loop
      vertex 29.05 11.25 7
      vertex 28.0259 11.25 7.38227
      vertex 29.0181 11.25 7.5076
    endloop
  endfacet
  facet normal 0 1 0
    outer loop
      vertex 28.0259 11.25 7.38227
      vertex 29.05 11.25 7
      vertex 28.05 11.25 7
    endloop
  endfacet
  facet normal 0 1 0
    outer loop
      vertex 23.7485 11.25 10.8518
      vertex 24.0575 11.25 9.90072
      vertex 23.2756 11.25 10.6645
    endloop
  endfacet
  facet normal 0 1 -0
    outer loop
      vertex 23.7014 11.25 9.75972
      vertex 23.2756 11.25 10.6645
      vertex 24.0575 11.25 9.90072
    endloop
  endfacet
  facet normal 0 1 0
    outer loop
      vertex 23.2756 11.25 10.6645
      vertex 23.7014 11.25 9.75972
      vertex 22.8299 11.25 10.4195
    endloop
  endfacet
  facet normal 0 1 -0
    outer loop
      vertex 23.3657 11.25 9.5752
      vertex 22.8299 11.25 10.4195
      vertex 23.7014 11.25 9.75972
    endloop
  endfacet
  facet normal 0 1 0
    outer loop
      vertex 22.8299 11.25 10.4195
      vertex 23.3657 11.25 9.5752
      vertex 22.4184 11.25 10.1206
    endloop
  endfacet
  facet normal 0 1 -0
    outer loop
      vertex 23.0559 11.25 9.35007
      vertex 22.4184 11.25 10.1206
      vertex 23.3657 11.25 9.5752
    endloop
  endfacet
  facet normal 0 1 0
    outer loop
      vertex 22.4184 11.25 10.1206
      vertex 23.0559 11.25 9.35007
      vertex 22.0477 11.25 9.77242
    endloop
  endfacet
  facet normal 0 1 -0
    outer loop
      vertex 22.7766 11.25 9.08787
      vertex 22.0477 11.25 9.77242
      vertex 23.0559 11.25 9.35007
    endloop
  endfacet
  facet normal 0 1 0
    outer loop
      vertex 22.0477 11.25 9.77242
      vertex 22.7766 11.25 9.08787
      vertex 21.7235 11.25 9.38053
    endloop
  endfacet
  facet normal 0 1 -0
    outer loop
      vertex 22.5325 11.25 8.79274
      vertex 21.7235 11.25 9.38053
      vertex 22.7766 11.25 9.08787
    endloop
  endfacet
  facet normal 0 1 0
    outer loop
      vertex 21.7235 11.25 9.38053
      vertex 22.5325 11.25 8.79274
      vertex 21.451 11.25 8.9511
    endloop
  endfacet
  facet normal 0 1 -0
    outer loop
      vertex 22.3273 11.25 8.46935
      vertex 21.451 11.25 8.9511
      vertex 22.5325 11.25 8.79274
    endloop
  endfacet
  facet normal 0 1 0
    outer loop
      vertex 21.451 11.25 8.9511
      vertex 22.3273 11.25 8.46935
      vertex 21.2344 11.25 8.4909
    endloop
  endfacet
  facet normal 0 1 -0
    outer loop
      vertex 22.1642 11.25 8.12278
      vertex 21.2344 11.25 8.4909
      vertex 22.3273 11.25 8.46935
    endloop
  endfacet
  facet normal 0 1 0
    outer loop
      vertex 22.1642 11.25 8.12278
      vertex 21.0772 11.25 8.00719
      vertex 21.2344 11.25 8.4909
    endloop
  endfacet
  facet normal 0 1 -0
    outer loop
      vertex 22.0458 11.25 7.7585
      vertex 21.0772 11.25 8.00719
      vertex 22.1642 11.25 8.12278
    endloop
  endfacet
  facet normal 0 1 0
    outer loop
      vertex 22.0458 11.25 7.7585
      vertex 20.9819 11.25 7.5076
      vertex 21.0772 11.25 8.00719
    endloop
  endfacet
  facet normal 0 1 -0
    outer loop
      vertex 21.9741 11.25 7.38227
      vertex 20.9819 11.25 7.5076
      vertex 22.0458 11.25 7.7585
    endloop
  endfacet
  facet normal 0 1 -0
    outer loop
      vertex 21.95 11.25 7
      vertex 20.9819 11.25 7.5076
      vertex 21.9741 11.25 7.38227
    endloop
  endfacet
  facet normal 0 1 0
    outer loop
      vertex 21.95 11.25 7
      vertex 20.95 11.25 7
      vertex 20.9819 11.25 7.5076
    endloop
  endfacet
  facet normal 0 1 0
    outer loop
      vertex 21.9741 11.25 6.61773
      vertex 20.95 11.25 7
      vertex 21.95 11.25 7
    endloop
  endfacet
  facet normal 0 1 0
    outer loop
      vertex 22.0458 11.25 6.2415
      vertex 20.95 11.25 7
      vertex 21.9741 11.25 6.61773
    endloop
  endfacet
  facet normal 0 1 0
    outer loop
      vertex 22.1642 11.25 5.87722
      vertex 20.95 11.25 7
      vertex 22.0458 11.25 6.2415
    endloop
  endfacet
  facet normal 0 1 0
    outer loop
      vertex 20.95 11.25 7
      vertex 22.1642 11.25 5.87722
      vertex 18.95 11.25 7
    endloop
  endfacet
  facet normal 0 1 0
    outer loop
      vertex 22.3273 11.25 5.53065
      vertex 18.95 11.25 7
      vertex 22.1642 11.25 5.87722
    endloop
  endfacet
  facet normal 0 1 0
    outer loop
      vertex 18.95 11.25 1
      vertex 22.3273 11.25 5.53065
      vertex 22.5325 11.25 5.20726
    endloop
  endfacet
  facet normal 0 1 0
    outer loop
      vertex 18.95 11.25 1
      vertex 22.5325 11.25 5.20726
      vertex 22.7766 11.25 4.91213
    endloop
  endfacet
  facet normal 0 1 0
    outer loop
      vertex 18.95 11.25 1
      vertex 22.7766 11.25 4.91213
      vertex 23.0559 11.25 4.64993
    endloop
  endfacet
  facet normal 0 1 0
    outer loop
      vertex 18.95 11.25 1
      vertex 23.0559 11.25 4.64993
      vertex 23.3657 11.25 4.4248
    endloop
  endfacet
  facet normal 0 1 0
    outer loop
      vertex 18.95 11.25 1
      vertex 24.8085 11.25 3.95602
      vertex 31.05 11.25 1
    endloop
  endfacet
  facet normal 0 1 0
    outer loop
      vertex 24.8085 11.25 3.95602
      vertex 18.95 11.25 1
      vertex 24.4285 11.25 4.00402
    endloop
  endfacet
  facet normal 0 1 0
    outer loop
      vertex 24.4285 11.25 4.00402
      vertex 18.95 11.25 1
      vertex 24.0575 11.25 4.09928
    endloop
  endfacet
  facet normal 0 1 0
    outer loop
      vertex 22.3273 11.25 5.53065
      vertex 18.95 11.25 1
      vertex 18.95 11.25 7
    endloop
  endfacet
  facet normal 0 1 0
    outer loop
      vertex 23.7014 11.25 4.24028
      vertex 18.95 11.25 1
      vertex 23.3657 11.25 4.4248
    endloop
  endfacet
  facet normal 0 1 0
    outer loop
      vertex 24.0575 11.25 4.09928
      vertex 18.95 11.25 1
      vertex 23.7014 11.25 4.24028
    endloop
  endfacet
  facet normal 4.76802e-06 -1 1.54921e-06
    outer loop
      vertex 28.9228 8.75 8.00719
      vertex 28.7656 8.75 8.4909
      vertex 29.05 8.75 7
    endloop
  endfacet
  facet normal 1.46953e-05 -1 2.80332e-06
    outer loop
      vertex 29.0181 8.75 7.5076
      vertex 28.9228 8.75 8.00719
      vertex 29.05 8.75 7
    endloop
  endfacet
  facet normal 5.14207e-07 -1 5.47576e-07
    outer loop
      vertex 27.9523 8.75 9.77242
      vertex 27.5816 8.75 10.1206
      vertex 29.05 8.75 7
    endloop
  endfacet
  facet normal 1.37615e-07 -1 3.47577e-07
    outer loop
      vertex 26.7244 8.75 10.6645
      vertex 26.2515 8.75 10.8518
      vertex 29.05 8.75 7
    endloop
  endfacet
  facet normal -2.28611e-06 -1 1.07576e-06
    outer loop
      vertex 21.2344 8.75 8.4909
      vertex 20.95 8.75 7
      vertex 21.451 8.75 8.9511
    endloop
  endfacet
  facet normal -1.46953e-05 -1 2.80332e-06
    outer loop
      vertex 20.9819 8.75 7.5076
      vertex 20.95 8.75 7
      vertex 21.0772 8.75 8.00719
    endloop
  endfacet
  facet normal -5.14207e-07 -1 5.47576e-07
    outer loop
      vertex 22.0477 8.75 9.77242
      vertex 20.95 8.75 7
      vertex 22.4184 8.75 10.1206
    endloop
  endfacet
  facet normal -1.37615e-07 -1 3.47577e-07
    outer loop
      vertex 23.2756 8.75 10.6645
      vertex 20.95 8.75 7
      vertex 23.7485 8.75 10.8518
    endloop
  endfacet
  facet normal -1 0 0
    outer loop
      vertex 18.95 8.75 1
      vertex 18.95 11.25 7
      vertex 18.95 11.25 1
    endloop
  endfacet
  facet normal -1 -0 0
    outer loop
      vertex 18.95 11.25 7
      vertex 18.95 8.75 1
      vertex 18.95 8.75 7
    endloop
  endfacet
  facet normal -0 0 1
    outer loop
      vertex 18.95 11.25 7
      vertex 20.95 8.75 7
      vertex 20.95 11.25 7
    endloop
  endfacet
  facet normal 0 0 1
    outer loop
      vertex 20.95 8.75 7
      vertex 18.95 11.25 7
      vertex 18.95 8.75 7
    endloop
  endfacet
  facet normal -0 0 1
    outer loop
      vertex 29.05 11.25 7
      vertex 31.05 8.75 7
      vertex 31.05 11.25 7
    endloop
  endfacet
  facet normal 0 0 1
    outer loop
      vertex 31.05 8.75 7
      vertex 29.05 11.25 7
      vertex 29.05 8.75 7
    endloop
  endfacet
  facet normal 1 -0 0
    outer loop
      vertex 31.05 8.75 7
      vertex 31.05 11.25 1
      vertex 31.05 11.25 7
    endloop
  endfacet
  facet normal 1 0 0
    outer loop
      vertex 31.05 11.25 1
      vertex 31.05 8.75 7
      vertex 31.05 8.75 1
    endloop
  endfacet
  facet normal 0 0 -1
    outer loop
      vertex 9 8 0
      vertex 33 39 0
      vertex 33 8 0
    endloop
  endfacet
  facet normal -0 0 -1
    outer loop
      vertex 33 39 0
      vertex 9 8 0
      vertex 9 39 0
    endloop
  endfacet
  facet normal -0.998027 0 -0.0627895
    outer loop
      vertex 28.05 8.75 7
      vertex 28.0259 11.25 7.38227
      vertex 28.05 11.25 7
    endloop
  endfacet
  facet normal -0.998027 -0 -0.0627895
    outer loop
      vertex 28.0259 11.25 7.38227
      vertex 28.05 8.75 7
      vertex 28.0259 8.75 7.38227
    endloop
  endfacet
  facet normal -0.982287 0 -0.187382
    outer loop
      vertex 28.0259 8.75 7.38227
      vertex 27.9542 11.25 7.7585
      vertex 28.0259 11.25 7.38227
    endloop
  endfacet
  facet normal -0.982287 -0 -0.187382
    outer loop
      vertex 27.9542 11.25 7.7585
      vertex 28.0259 8.75 7.38227
      vertex 27.9542 8.75 7.7585
    endloop
  endfacet
  facet normal 0.998027 0 -0.0627895
    outer loop
      vertex 21.9741 8.75 7.38227
      vertex 21.95 11.25 7
      vertex 21.9741 11.25 7.38227
    endloop
  endfacet
  facet normal 0.998027 0 -0.0627895
    outer loop
      vertex 21.95 11.25 7
      vertex 21.9741 8.75 7.38227
      vertex 21.95 8.75 7
    endloop
  endfacet
  facet normal 0 0 -1
    outer loop
      vertex 24.8085 8.75 10.044
      vertex 25.1915 11.25 10.044
      vertex 25.1915 8.75 10.044
    endloop
  endfacet
  facet normal -0 0 -1
    outer loop
      vertex 25.1915 11.25 10.044
      vertex 24.8085 8.75 10.044
      vertex 24.8085 11.25 10.044
    endloop
  endfacet
  facet normal -0.684546 0 -0.72897
    outer loop
      vertex 26.9441 8.75 9.35007
      vertex 27.2234 11.25 9.08787
      vertex 27.2234 8.75 9.08787
    endloop
  endfacet
  facet normal -0.684546 0 -0.72897
    outer loop
      vertex 27.2234 11.25 9.08787
      vertex 26.9441 8.75 9.35007
      vertex 26.9441 11.25 9.35007
    endloop
  endfacet
  facet normal 0.684546 0 -0.72897
    outer loop
      vertex 22.7766 8.75 9.08787
      vertex 23.0559 11.25 9.35007
      vertex 23.0559 8.75 9.35007
    endloop
  endfacet
  facet normal 0.684546 0 -0.72897
    outer loop
      vertex 23.0559 11.25 9.35007
      vertex 22.7766 8.75 9.08787
      vertex 22.7766 11.25 9.08787
    endloop
  endfacet
  facet normal -0.844329 0 0.535825
    outer loop
      vertex 27.4675 8.75 5.20726
      vertex 27.6727 11.25 5.53065
      vertex 27.4675 11.25 5.20726
    endloop
  endfacet
  facet normal -0.844329 0 0.535825
    outer loop
      vertex 27.6727 11.25 5.53065
      vertex 27.4675 8.75 5.20726
      vertex 27.6727 8.75 5.53065
    endloop
  endfacet
  facet normal -0.904828 0 -0.425778
    outer loop
      vertex 27.8358 8.75 8.12278
      vertex 27.6727 11.25 8.46935
      vertex 27.8358 11.25 8.12278
    endloop
  endfacet
  facet normal -0.904828 -2.56727e-07 -0.425777
    outer loop
      vertex 27.6753 8.75 8.46391
      vertex 27.6727 11.25 8.46935
      vertex 27.8358 8.75 8.12278
    endloop
  endfacet
  facet normal -0.904783 -0 -0.425874
    outer loop
      vertex 27.6727 11.25 8.46935
      vertex 27.6753 8.75 8.46391
      vertex 27.6727 8.75 8.46935
    endloop
  endfacet
  facet normal -0.24869 0 -0.968583
    outer loop
      vertex 25.5715 8.75 9.99598
      vertex 25.9425 11.25 9.90072
      vertex 25.9425 8.75 9.90072
    endloop
  endfacet
  facet normal -0.24869 0 -0.968583
    outer loop
      vertex 25.9425 11.25 9.90072
      vertex 25.5715 8.75 9.99598
      vertex 25.5715 11.25 9.99598
    endloop
  endfacet
  facet normal -0.587787 0 -0.809015
    outer loop
      vertex 26.6343 8.75 9.5752
      vertex 26.9441 11.25 9.35007
      vertex 26.9441 8.75 9.35007
    endloop
  endfacet
  facet normal -0.587787 0 -0.809015
    outer loop
      vertex 26.9441 11.25 9.35007
      vertex 26.6343 8.75 9.5752
      vertex 26.6343 11.25 9.5752
    endloop
  endfacet
  facet normal 0.904783 0 -0.425874
    outer loop
      vertex 22.3247 8.75 8.46391
      vertex 22.3273 11.25 8.46935
      vertex 22.3273 8.75 8.46935
    endloop
  endfacet
  facet normal 0.904828 -2.52701e-07 -0.425778
    outer loop
      vertex 22.3273 11.25 8.46935
      vertex 22.3247 8.75 8.46391
      vertex 22.1642 11.25 8.12278
    endloop
  endfacet
  facet normal 0.904828 0 -0.425777
    outer loop
      vertex 22.1642 11.25 8.12278
      vertex 22.3247 8.75 8.46391
      vertex 22.1642 8.75 8.12278
    endloop
  endfacet
  facet normal 0.770512 0 -0.637426
    outer loop
      vertex 22.7766 8.75 9.08787
      vertex 22.5325 11.25 8.79274
      vertex 22.7766 11.25 9.08787
    endloop
  endfacet
  facet normal 0.770512 0 -0.637426
    outer loop
      vertex 22.5325 11.25 8.79274
      vertex 22.7766 8.75 9.08787
      vertex 22.5325 8.75 8.79274
    endloop
  endfacet
  facet normal 0.125332 0 -0.992115
    outer loop
      vertex 24.4285 8.75 9.99598
      vertex 24.8085 11.25 10.044
      vertex 24.8085 8.75 10.044
    endloop
  endfacet
  facet normal 0.125332 0 -0.992115
    outer loop
      vertex 24.8085 11.25 10.044
      vertex 24.4285 8.75 9.99598
      vertex 24.4285 11.25 9.99598
    endloop
  endfacet
  facet normal 0.770512 -0 0.637426
    outer loop
      vertex 22.5325 8.75 5.20726
      vertex 22.7766 11.25 4.91213
      vertex 22.5325 11.25 5.20726
    endloop
  endfacet
  facet normal 0.770512 0 0.637426
    outer loop
      vertex 22.7766 11.25 4.91213
      vertex 22.5325 8.75 5.20726
      vertex 22.7766 8.75 4.91213
    endloop
  endfacet
  facet normal -0.125332 0 0.992115
    outer loop
      vertex 25.1915 11.25 3.95602
      vertex 25.5715 8.75 4.00402
      vertex 25.5715 11.25 4.00402
    endloop
  endfacet
  facet normal -0.125332 0 0.992115
    outer loop
      vertex 25.5715 8.75 4.00402
      vertex 25.1915 11.25 3.95602
      vertex 25.1915 8.75 3.95602
    endloop
  endfacet
  facet normal -0.951056 0 -0.309017
    outer loop
      vertex 27.9542 8.75 7.7585
      vertex 27.8358 11.25 8.12278
      vertex 27.9542 11.25 7.7585
    endloop
  endfacet
  facet normal -0.951056 -0 -0.309017
    outer loop
      vertex 27.8358 11.25 8.12278
      vertex 27.9542 8.75 7.7585
      vertex 27.8358 8.75 8.12278
    endloop
  endfacet
  facet normal -0.844329 0 -0.535825
    outer loop
      vertex 27.6727 8.75 8.46935
      vertex 27.4675 11.25 8.79274
      vertex 27.6727 11.25 8.46935
    endloop
  endfacet
  facet normal -0.844329 -0 -0.535825
    outer loop
      vertex 27.4675 11.25 8.79274
      vertex 27.6727 8.75 8.46935
      vertex 27.4675 8.75 8.79274
    endloop
  endfacet
  facet normal -0.770512 0 -0.637426
    outer loop
      vertex 27.4675 11.25 8.79274
      vertex 27.2234 8.75 9.08787
      vertex 27.2234 11.25 9.08787
    endloop
  endfacet
  facet normal -0.770512 0 -0.637426
    outer loop
      vertex 27.2234 8.75 9.08787
      vertex 27.4675 11.25 8.79274
      vertex 27.4675 8.75 8.79274
    endloop
  endfacet
  facet normal -0.481797 0 -0.876283
    outer loop
      vertex 26.629 8.75 9.57809
      vertex 26.6343 11.25 9.5752
      vertex 26.6343 8.75 9.5752
    endloop
  endfacet
  facet normal -0.481751 -1.26456e-07 -0.876308
    outer loop
      vertex 26.2986 8.75 9.75972
      vertex 26.6343 11.25 9.5752
      vertex 26.629 8.75 9.57809
    endloop
  endfacet
  facet normal -0.481751 0 -0.876308
    outer loop
      vertex 26.6343 11.25 9.5752
      vertex 26.2986 8.75 9.75972
      vertex 26.2986 11.25 9.75972
    endloop
  endfacet
  facet normal -0.125332 0 -0.992115
    outer loop
      vertex 25.1915 8.75 10.044
      vertex 25.5715 11.25 9.99598
      vertex 25.5715 8.75 9.99598
    endloop
  endfacet
  facet normal -0.125332 0 -0.992115
    outer loop
      vertex 25.5715 11.25 9.99598
      vertex 25.1915 8.75 10.044
      vertex 25.1915 11.25 10.044
    endloop
  endfacet
  facet normal -0.368125 0 -0.929777
    outer loop
      vertex 25.9425 8.75 9.90072
      vertex 26.2986 11.25 9.75972
      vertex 26.2986 8.75 9.75972
    endloop
  endfacet
  facet normal -0.368125 0 -0.929777
    outer loop
      vertex 26.2986 11.25 9.75972
      vertex 25.9425 8.75 9.90072
      vertex 25.9425 11.25 9.90072
    endloop
  endfacet
  facet normal 0.982287 0 -0.187382
    outer loop
      vertex 22.0458 8.75 7.7585
      vertex 21.9741 11.25 7.38227
      vertex 22.0458 11.25 7.7585
    endloop
  endfacet
  facet normal 0.982287 0 -0.187382
    outer loop
      vertex 21.9741 11.25 7.38227
      vertex 22.0458 8.75 7.7585
      vertex 21.9741 8.75 7.38227
    endloop
  endfacet
  facet normal 0.481751 0 -0.876308
    outer loop
      vertex 23.371 8.75 9.57809
      vertex 23.7014 11.25 9.75972
      vertex 23.7014 8.75 9.75972
    endloop
  endfacet
  facet normal 0.481797 0 -0.876283
    outer loop
      vertex 23.3657 11.25 9.5752
      vertex 23.371 8.75 9.57809
      vertex 23.3657 8.75 9.5752
    endloop
  endfacet
  facet normal 0.481751 -1.24472e-07 -0.876308
    outer loop
      vertex 23.371 8.75 9.57809
      vertex 23.3657 11.25 9.5752
      vertex 23.7014 11.25 9.75972
    endloop
  endfacet
  facet normal 0.587787 0 -0.809015
    outer loop
      vertex 23.0559 8.75 9.35007
      vertex 23.3657 11.25 9.5752
      vertex 23.3657 8.75 9.5752
    endloop
  endfacet
  facet normal 0.587787 0 -0.809015
    outer loop
      vertex 23.3657 11.25 9.5752
      vertex 23.0559 8.75 9.35007
      vertex 23.0559 11.25 9.35007
    endloop
  endfacet
  facet normal 0.368125 0 -0.929777
    outer loop
      vertex 23.7014 8.75 9.75972
      vertex 24.0575 11.25 9.90072
      vertex 24.0575 8.75 9.90072
    endloop
  endfacet
  facet normal 0.368125 0 -0.929777
    outer loop
      vertex 24.0575 11.25 9.90072
      vertex 23.7014 8.75 9.75972
      vertex 23.7014 11.25 9.75972
    endloop
  endfacet
  facet normal 0.24869 0 -0.968583
    outer loop
      vertex 24.0575 8.75 9.90072
      vertex 24.4285 11.25 9.99598
      vertex 24.4285 8.75 9.99598
    endloop
  endfacet
  facet normal 0.24869 0 -0.968583
    outer loop
      vertex 24.4285 11.25 9.99598
      vertex 24.0575 8.75 9.90072
      vertex 24.0575 11.25 9.90072
    endloop
  endfacet
  facet normal -0.998027 0 0.0627895
    outer loop
      vertex 28.0259 8.75 6.61773
      vertex 28.05 11.25 7
      vertex 28.0259 11.25 6.61773
    endloop
  endfacet
  facet normal -0.998027 0 0.0627895
    outer loop
      vertex 28.05 11.25 7
      vertex 28.0259 8.75 6.61773
      vertex 28.05 8.75 7
    endloop
  endfacet
  facet normal 0.998027 -0 0.0627895
    outer loop
      vertex 21.95 8.75 7
      vertex 21.9741 11.25 6.61773
      vertex 21.95 11.25 7
    endloop
  endfacet
  facet normal 0.998027 0 0.0627895
    outer loop
      vertex 21.9741 11.25 6.61773
      vertex 21.95 8.75 7
      vertex 21.9741 8.75 6.61773
    endloop
  endfacet
  facet normal -0 0 1
    outer loop
      vertex 24.8085 11.25 3.95602
      vertex 25.1915 8.75 3.95602
      vertex 25.1915 11.25 3.95602
    endloop
  endfacet
  facet normal 0 0 1
    outer loop
      vertex 25.1915 8.75 3.95602
      vertex 24.8085 11.25 3.95602
      vertex 24.8085 8.75 3.95602
    endloop
  endfacet
  facet normal 0.844329 0 -0.535825
    outer loop
      vertex 22.5325 8.75 8.79274
      vertex 22.3273 11.25 8.46935
      vertex 22.5325 11.25 8.79274
    endloop
  endfacet
  facet normal 0.844329 0 -0.535825
    outer loop
      vertex 22.3273 11.25 8.46935
      vertex 22.5325 8.75 8.79274
      vertex 22.3273 8.75 8.46935
    endloop
  endfacet
  facet normal 0.951056 0 -0.309017
    outer loop
      vertex 22.1642 8.75 8.12278
      vertex 22.0458 11.25 7.7585
      vertex 22.1642 11.25 8.12278
    endloop
  endfacet
  facet normal 0.951056 0 -0.309017
    outer loop
      vertex 22.0458 11.25 7.7585
      vertex 22.1642 8.75 8.12278
      vertex 22.0458 8.75 7.7585
    endloop
  endfacet
  facet normal -0.982287 0 0.187382
    outer loop
      vertex 27.9542 8.75 6.2415
      vertex 28.0259 11.25 6.61773
      vertex 27.9542 11.25 6.2415
    endloop
  endfacet
  facet normal -0.982287 0 0.187382
    outer loop
      vertex 28.0259 11.25 6.61773
      vertex 27.9542 8.75 6.2415
      vertex 28.0259 8.75 6.61773
    endloop
  endfacet
  facet normal -0.770512 0 0.637426
    outer loop
      vertex 27.2234 8.75 4.91213
      vertex 27.4675 11.25 5.20726
      vertex 27.2234 11.25 4.91213
    endloop
  endfacet
  facet normal -0.770512 0 0.637426
    outer loop
      vertex 27.4675 11.25 5.20726
      vertex 27.2234 8.75 4.91213
      vertex 27.4675 8.75 5.20726
    endloop
  endfacet
  facet normal 0.481751 0 0.876308
    outer loop
      vertex 23.3657 11.25 4.4248
      vertex 23.7014 8.75 4.24028
      vertex 23.7014 11.25 4.24028
    endloop
  endfacet
  facet normal 0.481751 0 0.876308
    outer loop
      vertex 23.7014 8.75 4.24028
      vertex 23.3657 11.25 4.4248
      vertex 23.3657 8.75 4.4248
    endloop
  endfacet
  facet normal -0.24869 0 0.968583
    outer loop
      vertex 25.5715 11.25 4.00402
      vertex 25.9425 8.75 4.09928
      vertex 25.9425 11.25 4.09928
    endloop
  endfacet
  facet normal -0.24869 0 0.968583
    outer loop
      vertex 25.9425 8.75 4.09928
      vertex 25.5715 11.25 4.00402
      vertex 25.5715 8.75 4.00402
    endloop
  endfacet
  facet normal -0.481751 0 0.876308
    outer loop
      vertex 26.2986 11.25 4.24028
      vertex 26.6343 8.75 4.4248
      vertex 26.6343 11.25 4.4248
    endloop
  endfacet
  facet normal -0.481751 0 0.876308
    outer loop
      vertex 26.6343 8.75 4.4248
      vertex 26.2986 11.25 4.24028
      vertex 26.2986 8.75 4.24028
    endloop
  endfacet
  facet normal -0.587787 0 0.809015
    outer loop
      vertex 26.6343 11.25 4.4248
      vertex 26.9441 8.75 4.64993
      vertex 26.9441 11.25 4.64993
    endloop
  endfacet
  facet normal -0.587787 0 0.809015
    outer loop
      vertex 26.9441 8.75 4.64993
      vertex 26.6343 11.25 4.4248
      vertex 26.6343 8.75 4.4248
    endloop
  endfacet
  facet normal -0.684546 0 0.72897
    outer loop
      vertex 26.9441 11.25 4.64993
      vertex 27.2234 8.75 4.91213
      vertex 27.2234 11.25 4.91213
    endloop
  endfacet
  facet normal -0.684546 0 0.72897
    outer loop
      vertex 27.2234 8.75 4.91213
      vertex 26.9441 11.25 4.64993
      vertex 26.9441 8.75 4.64993
    endloop
  endfacet
  facet normal -0.904828 0 0.425778
    outer loop
      vertex 27.6727 8.75 5.53065
      vertex 27.8358 11.25 5.87722
      vertex 27.6727 11.25 5.53065
    endloop
  endfacet
  facet normal -0.904828 0 0.425778
    outer loop
      vertex 27.8358 11.25 5.87722
      vertex 27.6727 8.75 5.53065
      vertex 27.8358 8.75 5.87722
    endloop
  endfacet
  facet normal -0.951056 0 0.309017
    outer loop
      vertex 27.8358 8.75 5.87722
      vertex 27.9542 11.25 6.2415
      vertex 27.8358 11.25 5.87722
    endloop
  endfacet
  facet normal -0.951056 0 0.309017
    outer loop
      vertex 27.9542 11.25 6.2415
      vertex 27.8358 8.75 5.87722
      vertex 27.9542 8.75 6.2415
    endloop
  endfacet
  facet normal 0.982287 -0 0.187382
    outer loop
      vertex 21.9741 8.75 6.61773
      vertex 22.0458 11.25 6.2415
      vertex 21.9741 11.25 6.61773
    endloop
  endfacet
  facet normal 0.982287 0 0.187382
    outer loop
      vertex 22.0458 11.25 6.2415
      vertex 21.9741 8.75 6.61773
      vertex 22.0458 8.75 6.2415
    endloop
  endfacet
  facet normal 0.684546 0 0.72897
    outer loop
      vertex 22.7766 11.25 4.91213
      vertex 23.0559 8.75 4.64993
      vertex 23.0559 11.25 4.64993
    endloop
  endfacet
  facet normal 0.684546 0 0.72897
    outer loop
      vertex 23.0559 8.75 4.64993
      vertex 22.7766 11.25 4.91213
      vertex 22.7766 8.75 4.91213
    endloop
  endfacet
  facet normal 0.587787 0 0.809015
    outer loop
      vertex 23.0559 11.25 4.64993
      vertex 23.3657 8.75 4.4248
      vertex 23.3657 11.25 4.4248
    endloop
  endfacet
  facet normal 0.587787 0 0.809015
    outer loop
      vertex 23.3657 8.75 4.4248
      vertex 23.0559 11.25 4.64993
      vertex 23.0559 8.75 4.64993
    endloop
  endfacet
  facet normal 0.904828 -0 0.425778
    outer loop
      vertex 22.1642 8.75 5.87722
      vertex 22.3273 11.25 5.53065
      vertex 22.1642 11.25 5.87722
    endloop
  endfacet
  facet normal 0.904828 0 0.425778
    outer loop
      vertex 22.3273 11.25 5.53065
      vertex 22.1642 8.75 5.87722
      vertex 22.3273 8.75 5.53065
    endloop
  endfacet
  facet normal 0.844329 -0 0.535825
    outer loop
      vertex 22.3273 8.75 5.53065
      vertex 22.5325 11.25 5.20726
      vertex 22.3273 11.25 5.53065
    endloop
  endfacet
  facet normal 0.844329 0 0.535825
    outer loop
      vertex 22.5325 11.25 5.20726
      vertex 22.3273 8.75 5.53065
      vertex 22.5325 8.75 5.20726
    endloop
  endfacet
  facet normal -0.368125 0 0.929777
    outer loop
      vertex 25.9425 11.25 4.09928
      vertex 26.2986 8.75 4.24028
      vertex 26.2986 11.25 4.24028
    endloop
  endfacet
  facet normal -0.368125 0 0.929777
    outer loop
      vertex 26.2986 8.75 4.24028
      vertex 25.9425 11.25 4.09928
      vertex 25.9425 8.75 4.09928
    endloop
  endfacet
  facet normal 0.24869 0 0.968583
    outer loop
      vertex 24.0575 11.25 4.09928
      vertex 24.4285 8.75 4.00402
      vertex 24.4285 11.25 4.00402
    endloop
  endfacet
  facet normal 0.24869 0 0.968583
    outer loop
      vertex 24.4285 8.75 4.00402
      vertex 24.0575 11.25 4.09928
      vertex 24.0575 8.75 4.09928
    endloop
  endfacet
  facet normal 0.125332 0 0.992115
    outer loop
      vertex 24.4285 11.25 4.00402
      vertex 24.8085 8.75 3.95602
      vertex 24.8085 11.25 3.95602
    endloop
  endfacet
  facet normal 0.125332 0 0.992115
    outer loop
      vertex 24.8085 8.75 3.95602
      vertex 24.4285 11.25 4.00402
      vertex 24.4285 8.75 4.00402
    endloop
  endfacet
  facet normal 0.951056 -0 0.309017
    outer loop
      vertex 22.0458 8.75 6.2415
      vertex 22.1642 11.25 5.87722
      vertex 22.0458 11.25 6.2415
    endloop
  endfacet
  facet normal 0.951056 0 0.309017
    outer loop
      vertex 22.1642 11.25 5.87722
      vertex 22.0458 8.75 6.2415
      vertex 22.1642 8.75 5.87722
    endloop
  endfacet
  facet normal 0.368125 0 0.929777
    outer loop
      vertex 23.7014 11.25 4.24028
      vertex 24.0575 8.75 4.09928
      vertex 24.0575 11.25 4.09928
    endloop
  endfacet
  facet normal 0.368125 0 0.929777
    outer loop
      vertex 24.0575 8.75 4.09928
      vertex 23.7014 11.25 4.24028
      vertex 23.7014 8.75 4.24028
    endloop
  endfacet
  facet normal -1 0 0
    outer loop
      vertex 10 12.5 1
      vertex 10 38.4 6.5
      vertex 10 38.4 1
    endloop
  endfacet
  facet normal -1 -0 0
    outer loop
      vertex 10 38.4 6.5
      vertex 10 12.5 1
      vertex 10 12.5 6.5
    endloop
  endfacet
  facet normal -0 0 1
    outer loop
      vertex 10 38.4 6.5
      vertex 12 12.5 6.5
      vertex 12 38.4 6.5
    endloop
  endfacet
  facet normal 0 0 1
    outer loop
      vertex 12 12.5 6.5
      vertex 10 38.4 6.5
      vertex 10 12.5 6.5
    endloop
  endfacet
  facet normal 1 -0 0
    outer loop
      vertex 11 12.5 5.5
      vertex 11 38.4 4.5
      vertex 11 38.4 5.5
    endloop
  endfacet
  facet normal 1 0 0
    outer loop
      vertex 11 38.4 4.5
      vertex 11 12.5 5.5
      vertex 11 12.5 4.5
    endloop
  endfacet
  facet normal 0 -1 0
    outer loop
      vertex 10 12.5 6.5
      vertex 11 12.5 5.5
      vertex 12 12.5 6.5
    endloop
  endfacet
  facet normal 0 -1 0
    outer loop
      vertex 10 12.5 6.5
      vertex 11 12.5 4.5
      vertex 11 12.5 5.5
    endloop
  endfacet
  facet normal 0 -1 0
    outer loop
      vertex 10 12.5 1
      vertex 11 12.5 4.5
      vertex 10 12.5 6.5
    endloop
  endfacet
  facet normal 0 -1 0
    outer loop
      vertex 12 12.5 1
      vertex 11 12.5 4.5
      vertex 10 12.5 1
    endloop
  endfacet
  facet normal 0 -1 0
    outer loop
      vertex 11 12.5 4.5
      vertex 12 12.5 1
      vertex 12 12.5 4.5
    endloop
  endfacet
  facet normal 0 -1 -0
    outer loop
      vertex 12 12.5 6.5
      vertex 11 12.5 5.5
      vertex 12 12.5 5.5
    endloop
  endfacet
  facet normal 0 1 0
    outer loop
      vertex 12 38.4 4.5
      vertex 12 38.4 1
      vertex 11 38.4 4.5
    endloop
  endfacet
  facet normal 0 1 0
    outer loop
      vertex 11 38.4 5.5
      vertex 12 38.4 6.5
      vertex 12 38.4 5.5
    endloop
  endfacet
  facet normal 0 1 0
    outer loop
      vertex 12 38.4 6.5
      vertex 11 38.4 5.5
      vertex 10 38.4 6.5
    endloop
  endfacet
  facet normal 0 1 -0
    outer loop
      vertex 11 38.4 4.5
      vertex 10 38.4 6.5
      vertex 11 38.4 5.5
    endloop
  endfacet
  facet normal 0 1 0
    outer loop
      vertex 10 38.4 1
      vertex 11 38.4 4.5
      vertex 12 38.4 1
    endloop
  endfacet
  facet normal 0 1 0
    outer loop
      vertex 11 38.4 4.5
      vertex 10 38.4 1
      vertex 10 38.4 6.5
    endloop
  endfacet
  facet normal -0 0 1
    outer loop
      vertex 11 38.4 4.5
      vertex 12 12.5 4.5
      vertex 12 38.4 4.5
    endloop
  endfacet
  facet normal 0 0 1
    outer loop
      vertex 12 12.5 4.5
      vertex 11 38.4 4.5
      vertex 11 12.5 4.5
    endloop
  endfacet
  facet normal 1 -0 0
    outer loop
      vertex 12 12.5 4.5
      vertex 12 38.4 1
      vertex 12 38.4 4.5
    endloop
  endfacet
  facet normal 1 0 0
    outer loop
      vertex 12 38.4 1
      vertex 12 12.5 4.5
      vertex 12 12.5 1
    endloop
  endfacet
  facet normal 1 -0 0
    outer loop
      vertex 12 12.5 6.5
      vertex 12 38.4 5.5
      vertex 12 38.4 6.5
    endloop
  endfacet
  facet normal 1 0 0
    outer loop
      vertex 12 38.4 5.5
      vertex 12 12.5 6.5
      vertex 12 12.5 5.5
    endloop
  endfacet
  facet normal 0 0 -1
    outer loop
      vertex 11 12.5 5.5
      vertex 12 38.4 5.5
      vertex 12 12.5 5.5
    endloop
  endfacet
  facet normal -0 0 -1
    outer loop
      vertex 12 38.4 5.5
      vertex 11 12.5 5.5
      vertex 11 38.4 5.5
    endloop
  endfacet
  facet normal -1 0 0
    outer loop
      vertex 31 12.5 4.5
      vertex 31 38.4 5.5
      vertex 31 38.4 4.5
    endloop
  endfacet
  facet normal -1 -0 0
    outer loop
      vertex 31 38.4 5.5
      vertex 31 12.5 4.5
      vertex 31 12.5 5.5
    endloop
  endfacet
  facet normal -0 0 1
    outer loop
      vertex 30 38.4 6.5
      vertex 32 12.5 6.5
      vertex 32 38.4 6.5
    endloop
  endfacet
  facet normal 0 0 1
    outer loop
      vertex 32 12.5 6.5
      vertex 30 38.4 6.5
      vertex 30 12.5 6.5
    endloop
  endfacet
  facet normal 1 -0 0
    outer loop
      vertex 32 12.5 6.5
      vertex 32 38.4 1
      vertex 32 38.4 6.5
    endloop
  endfacet
  facet normal 1 0 0
    outer loop
      vertex 32 38.4 1
      vertex 32 12.5 6.5
      vertex 32 12.5 1
    endloop
  endfacet
  facet normal 0 -1 0
    outer loop
      vertex 30 12.5 4.5
      vertex 30 12.5 1
      vertex 31 12.5 4.5
    endloop
  endfacet
  facet normal 0 -1 0
    outer loop
      vertex 31 12.5 5.5
      vertex 30 12.5 6.5
      vertex 30 12.5 5.5
    endloop
  endfacet
  facet normal 0 -1 0
    outer loop
      vertex 30 12.5 6.5
      vertex 31 12.5 5.5
      vertex 32 12.5 6.5
    endloop
  endfacet
  facet normal 0 -1 0
    outer loop
      vertex 31 12.5 4.5
      vertex 32 12.5 6.5
      vertex 31 12.5 5.5
    endloop
  endfacet
  facet normal 0 -1 0
    outer loop
      vertex 32 12.5 1
      vertex 31 12.5 4.5
      vertex 30 12.5 1
    endloop
  endfacet
  facet normal 0 -1 0
    outer loop
      vertex 31 12.5 4.5
      vertex 32 12.5 1
      vertex 32 12.5 6.5
    endloop
  endfacet
  facet normal 0 1 0
    outer loop
      vertex 32 38.4 6.5
      vertex 31 38.4 5.5
      vertex 30 38.4 6.5
    endloop
  endfacet
  facet normal 0 1 0
    outer loop
      vertex 32 38.4 6.5
      vertex 31 38.4 4.5
      vertex 31 38.4 5.5
    endloop
  endfacet
  facet normal 0 1 -0
    outer loop
      vertex 32 38.4 1
      vertex 31 38.4 4.5
      vertex 32 38.4 6.5
    endloop
  endfacet
  facet normal 0 1 0
    outer loop
      vertex 30 38.4 1
      vertex 31 38.4 4.5
      vertex 32 38.4 1
    endloop
  endfacet
  facet normal 0 1 0
    outer loop
      vertex 31 38.4 4.5
      vertex 30 38.4 1
      vertex 30 38.4 4.5
    endloop
  endfacet
  facet normal 0 1 0
    outer loop
      vertex 30 38.4 6.5
      vertex 31 38.4 5.5
      vertex 30 38.4 5.5
    endloop
  endfacet
  facet normal -1 0 0
    outer loop
      vertex 30 12.5 1
      vertex 30 38.4 4.5
      vertex 30 38.4 1
    endloop
  endfacet
  facet normal -1 -0 0
    outer loop
      vertex 30 38.4 4.5
      vertex 30 12.5 1
      vertex 30 12.5 4.5
    endloop
  endfacet
  facet normal -0 0 1
    outer loop
      vertex 30 38.4 4.5
      vertex 31 12.5 4.5
      vertex 31 38.4 4.5
    endloop
  endfacet
  facet normal 0 0 1
    outer loop
      vertex 31 12.5 4.5
      vertex 30 38.4 4.5
      vertex 30 12.5 4.5
    endloop
  endfacet
  facet normal -1 0 0
    outer loop
      vertex 30 12.5 5.5
      vertex 30 38.4 6.5
      vertex 30 38.4 5.5
    endloop
  endfacet
  facet normal -1 -0 0
    outer loop
      vertex 30 38.4 6.5
      vertex 30 12.5 5.5
      vertex 30 12.5 6.5
    endloop
  endfacet
  facet normal 0 0 -1
    outer loop
      vertex 30 12.5 5.5
      vertex 31 38.4 5.5
      vertex 31 12.5 5.5
    endloop
  endfacet
  facet normal -0 0 -1
    outer loop
      vertex 31 38.4 5.5
      vertex 30 12.5 5.5
      vertex 30 38.4 5.5
    endloop
  endfacet
  facet normal -1 0 0
    outer loop
      vertex 9 8 0
      vertex 9 39 1
      vertex 9 39 0
    endloop
  endfacet
  facet normal -1 -0 0
    outer loop
      vertex 9 39 1
      vertex 9 8 0
      vertex 9 8 1
    endloop
  endfacet
  facet normal -0 0 1
    outer loop
      vertex 30 12.5 1
      vertex 31.05 11.25 1
      vertex 32 12.5 1
    endloop
  endfacet
  facet normal 0 0 1
    outer loop
      vertex 31.05 11.25 1
      vertex 30 12.5 1
      vertex 18.95 11.25 1
    endloop
  endfacet
  facet normal 0 0 1
    outer loop
      vertex 32 12.5 1
      vertex 33 39 1
      vertex 32 38.4 1
    endloop
  endfacet
  facet normal 0 0 1
    outer loop
      vertex 33 39 1
      vertex 30 38.4 1
      vertex 32 38.4 1
    endloop
  endfacet
  facet normal 0 0 1
    outer loop
      vertex 30 38.4 1
      vertex 18.95 11.25 1
      vertex 30 12.5 1
    endloop
  endfacet
  facet normal -0 0 1
    outer loop
      vertex 12 12.5 1
      vertex 18.95 11.25 1
      vertex 12 38.4 1
    endloop
  endfacet
  facet normal 0 0 1
    outer loop
      vertex 30 38.4 1
      vertex 12 38.4 1
      vertex 18.95 11.25 1
    endloop
  endfacet
  facet normal 0 0 1
    outer loop
      vertex 33 39 1
      vertex 12 38.4 1
      vertex 30 38.4 1
    endloop
  endfacet
  facet normal -0 0 1
    outer loop
      vertex 9 39 1
      vertex 12 38.4 1
      vertex 33 39 1
    endloop
  endfacet
  facet normal 0 0 1
    outer loop
      vertex 10 38.4 1
      vertex 9 39 1
      vertex 10 12.5 1
    endloop
  endfacet
  facet normal 0 0 1
    outer loop
      vertex 12 38.4 1
      vertex 9 39 1
      vertex 10 38.4 1
    endloop
  endfacet
  facet normal 0 0 1
    outer loop
      vertex 33 39 1
      vertex 32 12.5 1
      vertex 33 8 1
    endloop
  endfacet
  facet normal -0 0 1
    outer loop
      vertex 31.05 11.25 1
      vertex 33 8 1
      vertex 32 12.5 1
    endloop
  endfacet
  facet normal -0 0 1
    outer loop
      vertex 31.05 8.75 1
      vertex 33 8 1
      vertex 31.05 11.25 1
    endloop
  endfacet
  facet normal -0 0 1
    outer loop
      vertex 18.95 8.75 1
      vertex 33 8 1
      vertex 31.05 8.75 1
    endloop
  endfacet
  facet normal 0 0 1
    outer loop
      vertex 18.95 11.25 1
      vertex 12 12.5 1
      vertex 18.95 8.75 1
    endloop
  endfacet
  facet normal 0 0 1
    outer loop
      vertex 9 8 1
      vertex 12 12.5 1
      vertex 10 12.5 1
    endloop
  endfacet
  facet normal 0 0 1
    outer loop
      vertex 18.95 8.75 1
      vertex 9 8 1
      vertex 33 8 1
    endloop
  endfacet
  facet normal 0 0 1
    outer loop
      vertex 12 12.5 1
      vertex 9 8 1
      vertex 18.95 8.75 1
    endloop
  endfacet
  facet normal 0 0 1
    outer loop
      vertex 9 8 1
      vertex 10 12.5 1
      vertex 9 39 1
    endloop
  endfacet
  facet normal 1 -0 0
    outer loop
      vertex 33 8 1
      vertex 33 39 0
      vertex 33 39 1
    endloop
  endfacet
  facet normal 1 0 0
    outer loop
      vertex 33 39 0
      vertex 33 8 1
      vertex 33 8 0
    endloop
  endfacet
  facet normal 0 1 -0
    outer loop
      vertex 33 39 0
      vertex 9 39 1
      vertex 33 39 1
    endloop
  endfacet
  facet normal 0 1 0
    outer loop
      vertex 9 39 1
      vertex 33 39 0
      vertex 9 39 0
    endloop
  endfacet
  facet normal 0 -1 0
    outer loop
      vertex 9 8 0
      vertex 33 8 1
      vertex 9 8 1
    endloop
  endfacet
  facet normal 0 -1 -0
    outer loop
      vertex 33 8 1
      vertex 9 8 0
      vertex 33 8 0
    endloop
  endfacet
endsolid OpenSCAD_Model
